<?xml version="1.0" encoding="iso-8859-1"?>
<!-- Generator: Adobe Illustrator 27.0.0, SVG Export Plug-In . SVG Version: 6.00 Build 0)  -->
<svg version="1.1" id="Layer_1" xmlns="http://www.w3.org/2000/svg" xmlns:xlink="http://www.w3.org/1999/xlink" x="0px" y="0px"
	 viewBox="0 0 500 500" style="enable-background:new 0 0 500 500;" xml:space="preserve">
<g id="watermark_1_">
	<g>
		<g id="watermark" style="opacity:0.61;">
			<g>
				<g>
					<g>
						<g>
							<polygon style="fill:#FFFFFF;" points="213.765,461.172 208.204,474.017 205.268,474.017 199.726,461.172 202.938,461.172 
								206.846,470.347 210.81,461.172 							"/>
						</g>
						<g>
							<path style="fill:#FFFFFF;" d="M223.507,469.741h-7.469c0.275,1.23,1.321,1.982,2.826,1.982c1.046,0,1.798-0.312,2.477-0.954
								l1.523,1.651c-0.917,1.046-2.294,1.597-4.074,1.597c-3.413,0-5.634-2.147-5.634-5.083c0-2.954,2.257-5.083,5.267-5.083
								c2.899,0,5.138,1.945,5.138,5.12C223.562,469.191,223.526,469.503,223.507,469.741 M216.002,468.071h4.863
								c-0.202-1.248-1.138-2.055-2.422-2.055C217.139,466.016,216.204,466.805,216.002,468.071"/>
						</g>
						<g>
							<path style="fill:#FFFFFF;" d="M224.735,468.934c0-2.973,2.294-5.083,5.505-5.083c2.074,0,3.707,0.899,4.423,2.514
								l-2.22,1.193c-0.532-0.936-1.321-1.358-2.221-1.358c-1.45,0-2.587,1.009-2.587,2.734c0,1.725,1.138,2.734,2.587,2.734
								c0.899,0,1.688-0.404,2.221-1.358l2.22,1.211c-0.716,1.578-2.349,2.495-4.423,2.495
								C227.029,474.017,224.735,471.907,224.735,468.934"/>
						</g>
						<g>
							<path style="fill:#FFFFFF;" d="M242.828,473.393c-0.587,0.422-1.45,0.624-2.331,0.624c-2.33,0-3.688-1.193-3.688-3.542
								v-4.055h-1.523v-2.202h1.523v-2.404h2.863v2.404h2.459v2.202h-2.459v4.019c0,0.844,0.458,1.303,1.229,1.303
								c0.422,0,0.844-0.128,1.156-0.367L242.828,473.393z"/>
						</g>
					</g>
					<g>
						<path style="fill:#FFFFFF;" d="M262.474,463.997v2.643c-0.238-0.018-0.422-0.037-0.642-0.037
							c-1.578,0-2.624,0.862-2.624,2.753v4.661h-2.863v-9.873h2.734v1.303C259.776,464.493,260.951,463.997,262.474,463.997"/>
					</g>
					<g>
						<path style="fill:#FFFFFF;" d="M263.299,472.53l1.009-2.239c1.083,0.789,2.697,1.339,4.239,1.339
							c1.762,0,2.477-0.587,2.477-1.376c0-2.404-7.469-0.752-7.469-5.524c0-2.184,1.762-4,5.413-4c1.615,0,3.267,0.385,4.459,1.138
							l-0.918,2.257c-1.193-0.679-2.422-1.009-3.56-1.009c-1.761,0-2.44,0.66-2.44,1.468c0,2.367,7.468,0.734,7.468,5.45
							c0,2.147-1.78,3.982-5.45,3.982C266.492,474.017,264.437,473.411,263.299,472.53"/>
					</g>
					<g>
						<path style="fill:#FFFFFF;" d="M285.428,469.741h-7.469c0.275,1.23,1.321,1.982,2.826,1.982c1.046,0,1.798-0.312,2.477-0.954
							l1.523,1.651c-0.918,1.046-2.294,1.597-4.074,1.597c-3.413,0-5.634-2.147-5.634-5.083c0-2.954,2.257-5.083,5.267-5.083
							c2.9,0,5.138,1.945,5.138,5.12C285.484,469.191,285.447,469.503,285.428,469.741 M277.923,468.071h4.863
							c-0.202-1.248-1.138-2.055-2.422-2.055C279.061,466.016,278.125,466.805,277.923,468.071"/>
					</g>
					<g>
						<path style="fill:#FFFFFF;" d="M297.007,469.741h-7.469c0.275,1.23,1.321,1.982,2.826,1.982c1.046,0,1.798-0.312,2.477-0.954
							l1.523,1.651c-0.918,1.046-2.294,1.597-4.074,1.597c-3.413,0-5.634-2.147-5.634-5.083c0-2.954,2.257-5.083,5.267-5.083
							c2.899,0,5.138,1.945,5.138,5.12C297.062,469.191,297.025,469.503,297.007,469.741 M289.501,468.071h4.863
							c-0.202-1.248-1.138-2.055-2.422-2.055C290.639,466.016,289.703,466.805,289.501,468.071"/>
					</g>
					<g>
						<polygon style="fill:#FFFFFF;" points="303.208,470.145 301.831,471.503 301.831,474.017 298.969,474.017 298.969,460.401 
							301.831,460.401 301.831,468.108 306.016,464.144 309.429,464.144 305.318,468.328 309.796,474.017 306.327,474.017 						"/>
					</g>
					<g>
						<path style="fill:#FFFFFF;" d="M256.601,475.359L256.601,475.359l-2.86-2.86c-0.435,0.508-0.953,0.943-1.534,1.284
							c-0.092,0.069-0.186,0.136-0.283,0.199l3.027,3.027c0.456,0.456,1.195,0.456,1.65,0
							C257.057,476.554,257.057,475.815,256.601,475.359"/>
					</g>
					<g>
						<path style="fill:#FFFFFF;" d="M249.984,463.244c0.221-0.173,0.495-0.281,0.797-0.281c0.042,0,0.083,0.002,0.124,0.006
							c-0.214-0.156-0.478-0.249-0.764-0.249c-0.395,0-0.744,0.18-0.981,0.458c-0.051,0-0.1,0.006-0.151,0.008
							c0.039-0.077,0.064-0.162,0.064-0.255c0-0.234-0.143-0.434-0.346-0.519c0.087,0.126,0.138,0.279,0.138,0.445
							c0,0.122-0.031,0.237-0.081,0.341c-2.811,0.201-5.03,2.539-5.03,5.4c0,2.993,2.426,5.42,5.42,5.42
							c2.993,0,5.42-2.426,5.42-5.42C254.595,465.879,252.593,463.635,249.984,463.244 M247.983,464.656
							c0.435,0,0.844,0.112,1.199,0.309c0.374-0.245,0.82-0.387,1.299-0.387c0.711,0,1.348,0.312,1.784,0.806
							c-0.435-0.379-1.004-0.61-1.627-0.61c-0.449,0-0.87,0.12-1.234,0.329c-0.079,0.046-0.156,0.096-0.229,0.15
							c-0.065-0.048-0.133-0.093-0.204-0.134c-0.369-0.219-0.8-0.344-1.26-0.344c-0.3,0-0.588,0.054-0.854,0.152
							C247.196,464.754,247.578,464.656,247.983,464.656 M251.772,469.098c0.115,0.305,0.181,0.634,0.181,0.979
							c0,1.534-1.244,2.777-2.778,2.777c-1.534,0-2.777-1.243-2.777-2.777c0-0.345,0.066-0.674,0.181-0.979
							c-0.62-0.382-1.035-1.064-1.035-1.846c0-1.197,0.971-2.168,2.168-2.168c0.565,0,1.078,0.218,1.463,0.572
							c0.386-0.354,0.899-0.572,1.464-0.572c1.197,0,2.168,0.971,2.168,2.168C252.807,468.034,252.392,468.716,251.772,469.098"/>
					</g>
					<g>
						<path style="fill:#FFFFFF;" d="M251.666,467.061c0,0.497-0.404,0.901-0.901,0.901c-0.497,0-0.901-0.404-0.901-0.901
							s0.404-0.901,0.901-0.901c0.101,0,0.197,0.017,0.287,0.047c-0.03,0.062-0.045,0.132-0.045,0.204
							c0,0.273,0.221,0.494,0.494,0.494c0.05,0,0.099-0.008,0.146-0.022C251.66,466.941,251.666,467,251.666,467.061"/>
					</g>
					<g>
						<path style="fill:#FFFFFF;" d="M248.255,467.061c0,0.376-0.305,0.681-0.681,0.681c-0.376,0-0.681-0.305-0.681-0.681
							s0.305-0.681,0.681-0.681c0.076,0,0.149,0.013,0.217,0.035c-0.023,0.047-0.034,0.1-0.034,0.155
							c0,0.206,0.167,0.374,0.374,0.374c0.038,0,0.075-0.006,0.11-0.017C248.25,466.97,248.255,467.015,248.255,467.061"/>
					</g>
					<g>
						<g>
							<g>
								<rect x="242.908" y="467.83" style="fill:#FFFFFF;" width="0.616" height="0.616"/>
							</g>
							<g>
								<rect x="254.827" y="467.83" style="fill:#FFFFFF;" width="0.616" height="0.616"/>
							</g>
							<g>
								<path style="fill:#FFFFFF;" d="M255.205,468.082h-0.14c0-3.248-2.642-5.89-5.89-5.89c-3.248,0-5.89,2.642-5.89,5.89h-0.14
									c0-1.611,0.627-3.125,1.766-4.264c1.139-1.139,2.653-1.766,4.264-1.766c1.611,0,3.125,0.627,4.264,1.766
									C254.578,464.957,255.205,466.471,255.205,468.082"/>
							</g>
						</g>
						<g>
							<rect x="248.868" y="461.814" style="fill:#FFFFFF;" width="0.616" height="0.616"/>
						</g>
						<g>
							<rect x="244.95" y="462.052" style="fill:#FFFFFF;" width="8.45" height="0.14"/>
						</g>
						<g>
							<path style="fill:#FFFFFF;" d="M245.174,462.15c0,0.108-0.088,0.196-0.196,0.196c-0.108,0-0.196-0.088-0.196-0.196
								c0-0.108,0.088-0.196,0.196-0.196C245.086,461.954,245.174,462.042,245.174,462.15"/>
						</g>
						<g>
							<path style="fill:#FFFFFF;" d="M253.596,462.15c0,0.108-0.088,0.196-0.196,0.196c-0.108,0-0.196-0.088-0.196-0.196
								c0-0.108,0.088-0.196,0.196-0.196C253.509,461.954,253.596,462.042,253.596,462.15"/>
						</g>
					</g>
				</g>
				<g>
					<path style="fill:#FFFFFF;" d="M314.356,473.409c0,1.559-2.364,1.559-2.364,0C311.993,471.851,314.356,471.851,314.356,473.409
						z"/>
				</g>
				<g>
					<g>
						<g>
							<path style="fill:#FFFFFF;" d="M161.739,466.549l1.772,6.088l1.855-6.088h2.215l-2.823,8.14h-2.33l-0.837-2.396l-0.722-2.708
								l-0.722,2.708l-0.837,2.396h-2.33l-2.839-8.14h2.231l1.855,6.088l1.756-6.088H161.739z"/>
						</g>
						<g>
							<path style="fill:#FFFFFF;" d="M176.713,466.549l1.772,6.088l1.855-6.088h2.215l-2.823,8.14h-2.33l-0.837-2.396l-0.722-2.708
								l-0.722,2.708l-0.837,2.396h-2.33l-2.839-8.14h2.231l1.855,6.088l1.756-6.088H176.713z"/>
						</g>
						<g>
							<path style="fill:#FFFFFF;" d="M191.687,466.549l1.772,6.088l1.855-6.088h2.215l-2.823,8.14h-2.33l-0.837-2.396l-0.722-2.708
								l-0.722,2.708l-0.837,2.396h-2.33l-2.839-8.14h2.231l1.855,6.088l1.756-6.088H191.687z"/>
						</g>
					</g>
					<g>
						<path style="fill:#FFFFFF;" d="M200.908,473.52c0,1.559-2.364,1.559-2.364,0C198.545,471.962,200.908,471.962,200.908,473.52z
							"/>
					</g>
					<g>
						<path style="fill:#FFFFFF;" d="M322.71,473.409c-0.935,0.919-1.919,1.28-3.117,1.28c-2.346,0-4.3-1.411-4.3-4.282
							s1.953-4.284,4.3-4.284c1.149,0,2.035,0.329,2.921,1.199l-1.264,1.329c-0.476-0.428-1.066-0.64-1.623-0.64
							c-1.346,0-2.33,0.985-2.33,2.396c0,1.542,1.05,2.362,2.297,2.362c0.64,0,1.28-0.18,1.772-0.672L322.71,473.409z"/>
					</g>
					<g>
						<path style="fill:#FFFFFF;" d="M331.805,470.472c0,2.33-1.591,4.217-4.217,4.217c-2.626,0-4.201-1.887-4.201-4.217
							c0-2.314,1.609-4.217,4.185-4.217C330.149,466.255,331.805,468.158,331.805,470.472z M325.389,470.472
							c0,1.231,0.739,2.38,2.199,2.38c1.46,0,2.199-1.149,2.199-2.38c0-1.215-0.854-2.396-2.199-2.396
							C326.144,468.077,325.389,469.258,325.389,470.472z"/>
					</g>
					<g>
						<path style="fill:#FFFFFF;" d="M338.572,474.689v-4.332c0-1.068-0.559-2.035-1.658-2.035c-1.082,0-1.722,0.967-1.722,2.035
							v4.332h-2.003v-8.107h1.855l0.148,0.985c0.426-0.82,1.362-1.116,2.133-1.116c0.969,0,1.937,0.394,2.396,1.51
							c0.723-1.149,1.658-1.478,2.708-1.478c2.297,0,3.43,1.412,3.43,3.84v4.365h-2.003v-4.365c0-1.066-0.442-1.97-1.526-1.97
							c-1.082,0-1.756,0.935-1.756,2.003v4.332H338.572z"/>
					</g>
				</g>
			</g>
		</g>
		<g style="opacity:0.61;">
			<g>
				<g>
					<path style="fill:#FFFFFF;" d="M345.988,431.299c-0.006-1.224-0.959-2.121-2.189-2.14c-0.924-0.014-0.832,0.12-0.834-0.867
						c-0.003-1.097-0.007-2.194,0.003-3.292c0.003-0.379-0.112-0.691-0.362-0.976c-2.342-2.668-4.678-5.342-7.019-8.011
						c-0.12-0.137-0.275-0.244-0.414-0.366c-6.214,0-12.427,0-18.641,0c-0.794,0.293-1.14,0.868-1.138,1.709
						c0.01,3.748,0.004,7.496,0.004,11.243c0,0.556-0.003,0.589-0.55,0.551c-1.497-0.102-2.516,0.986-2.497,2.492
						c0.044,3.476,0.013,6.953,0.014,10.429c0.001,1.58,0.867,2.443,2.45,2.449c0.582,0.002,0.582,0.002,0.582,0.6
						c0,2.219-0.001,4.438,0.001,6.657c0.001,1.192,0.58,1.771,1.768,1.771c8.013,0.001,16.027,0.001,24.04,0
						c1.168,0,1.755-0.583,1.757-1.745c0.002-2.256,0-4.512,0.001-6.768c0-0.512,0.002-0.511,0.52-0.515
						c0.271-0.002,0.541,0.008,0.809-0.058c0.996-0.246,1.69-1.044,1.694-2.069C346.003,438.696,346.005,434.997,345.988,431.299z
						 M317.537,417.162c5.337,0,10.674,0,16.01,0c0.548,0,0.554,0.007,0.554,0.561c0.001,2.243-0.001,4.486,0.001,6.73
						c0.001,0.811,0.249,1.059,1.06,1.059c1.91,0.001,3.821,0,5.731,0.001c0.458,0,0.479,0.021,0.481,0.483
						c0.003,0.887,0.002,1.775,0,2.662c-0.001,0.477-0.024,0.498-0.504,0.499c-3.895,0.001-7.79,0-11.684,0
						c-3.882,0-7.765,0-11.647,0c-0.55,0-0.552-0.001-0.552-0.561c-0.001-3.624-0.001-7.247,0-10.871
						C316.987,417.166,316.991,417.162,317.537,417.162z M340.822,451.579c-3.883,0.001-7.766,0-11.65,0c-3.871,0-7.742,0-11.613,0
						c-0.572,0-0.574-0.002-0.574-0.579c-0.001-1.997-0.001-3.994,0.001-5.991c0-0.464,0.023-0.486,0.478-0.487
						c7.803-0.001,15.607-0.001,23.41,0c0.478,0,0.499,0.02,0.499,0.503c0.002,1.997,0.001,3.994,0,5.991
						C341.375,451.574,341.37,451.579,340.822,451.579z"/>
				</g>
				<g>
					<g>
						<rect x="327.418" y="417.053" style="fill:#FFFFFF;" width="1.757" height="1.054"/>
					</g>
					<g>
						<rect x="325.662" y="418.107" style="fill:#FFFFFF;" width="1.757" height="1.054"/>
					</g>
					<g>
						<rect x="327.418" y="419.161" style="fill:#FFFFFF;" width="1.757" height="1.054"/>
					</g>
					<g>
						<rect x="325.662" y="420.215" style="fill:#FFFFFF;" width="1.757" height="1.054"/>
					</g>
					<g>
						<rect x="327.418" y="421.269" style="fill:#FFFFFF;" width="1.757" height="1.054"/>
					</g>
					<g>
						<rect x="325.662" y="422.323" style="fill:#FFFFFF;" width="1.757" height="1.054"/>
					</g>
					<g>
						<rect x="327.418" y="423.378" style="fill:#FFFFFF;" width="1.757" height="1.054"/>
					</g>
					<g>
						<rect x="325.662" y="424.432" style="fill:#FFFFFF;" width="1.757" height="1.054"/>
					</g>
					<g>
						<rect x="327.418" y="425.486" style="fill:#FFFFFF;" width="1.757" height="1.054"/>
					</g>
					<g>
						<rect x="325.662" y="426.54" style="fill:#FFFFFF;" width="1.757" height="1.054"/>
					</g>
					<g>
						<rect x="327.418" y="427.594" style="fill:#FFFFFF;" width="1.757" height="1.054"/>
					</g>
					<g>
						<rect x="325.662" y="428.648" style="fill:#FFFFFF;" width="1.757" height="1.054"/>
					</g>
				</g>
			</g>
			<g>
				<path style="fill:#FFFFFF;" d="M187.637,431.299c-0.006-1.224-0.959-2.121-2.189-2.14c-0.924-0.014-0.832,0.12-0.834-0.867
					c-0.003-1.097-0.007-2.194,0.003-3.292c0.003-0.379-0.112-0.691-0.362-0.976c-2.342-2.668-4.678-5.342-7.019-8.011
					c-0.12-0.137-0.275-0.244-0.414-0.366c-6.214,0-12.427,0-18.641,0c-0.794,0.293-1.14,0.868-1.138,1.709
					c0.01,3.748,0.004,7.496,0.004,11.243c0,0.556-0.003,0.589-0.55,0.551c-1.497-0.102-2.516,0.986-2.497,2.492
					c0.044,3.476,0.013,6.953,0.014,10.429c0.001,1.58,0.867,2.443,2.45,2.449c0.582,0.002,0.582,0.002,0.582,0.6
					c0,2.219-0.001,4.438,0.001,6.657c0.001,1.192,0.58,1.771,1.768,1.771c8.013,0.001,16.027,0.001,24.04,0
					c1.168,0,1.755-0.583,1.757-1.745c0.002-2.256,0-4.512,0.001-6.768c0-0.512,0.002-0.511,0.52-0.515
					c0.271-0.002,0.541,0.008,0.809-0.058c0.996-0.246,1.69-1.044,1.694-2.069C187.652,438.696,187.655,434.997,187.637,431.299z
					 M159.187,417.162c5.337,0,10.674,0,16.01,0c0.548,0,0.554,0.007,0.554,0.561c0.001,2.243-0.001,4.486,0.001,6.73
					c0.001,0.811,0.249,1.059,1.06,1.059c1.91,0.001,3.821,0,5.731,0.001c0.458,0,0.479,0.021,0.481,0.483
					c0.003,0.887,0.002,1.775,0,2.662c-0.001,0.477-0.024,0.498-0.504,0.499c-3.895,0.001-7.79,0-11.684,0
					c-3.882,0-7.765,0-11.647,0c-0.55,0-0.552-0.001-0.552-0.561c-0.001-3.624-0.001-7.247,0-10.871
					C158.636,417.166,158.64,417.162,159.187,417.162z M182.472,451.579c-3.883,0.001-7.766,0-11.65,0c-3.871,0-7.742,0-11.613,0
					c-0.572,0-0.574-0.002-0.574-0.579c-0.001-1.997-0.001-3.994,0.001-5.991c0-0.464,0.023-0.486,0.478-0.487
					c7.803-0.001,15.607-0.001,23.41,0c0.478,0,0.499,0.02,0.499,0.503c0.002,1.997,0.001,3.994,0,5.991
					C183.024,451.574,183.019,451.579,182.472,451.579z"/>
			</g>
			<g>
				<path style="fill:#FFFFFF;" d="M159.779,440.669v-7.897h2.779c0.375,0,0.726,0.061,1.053,0.182
					c0.327,0.121,0.612,0.292,0.855,0.513c0.242,0.221,0.434,0.483,0.573,0.789c0.14,0.305,0.21,0.642,0.21,1.009
					c0,0.375-0.07,0.715-0.21,1.02c-0.14,0.305-0.331,0.568-0.573,0.789c-0.243,0.221-0.528,0.392-0.855,0.513
					c-0.327,0.121-0.678,0.182-1.053,0.182h-1.29v2.901H159.779z M162.58,436.356c0.39,0,0.684-0.111,0.882-0.331
					c0.199-0.22,0.298-0.474,0.298-0.761c0-0.14-0.024-0.276-0.072-0.408c-0.048-0.132-0.121-0.248-0.221-0.347
					c-0.099-0.099-0.223-0.178-0.37-0.237c-0.147-0.059-0.32-0.089-0.518-0.089h-1.312v2.173H162.58z"/>
				<path style="fill:#FFFFFF;" d="M166.308,432.771h1.731l3.177,5.294h0.088l-0.088-1.522v-3.772h1.478v7.897h-1.566l-3.353-5.592
					h-0.088l0.088,1.522v4.07h-1.467V432.771z"/>
				<path style="fill:#FFFFFF;" d="M177.922,436.334h3.872c0.022,0.089,0.04,0.195,0.055,0.32c0.014,0.125,0.022,0.25,0.022,0.375
					c0,0.507-0.077,0.985-0.231,1.434c-0.154,0.449-0.397,0.849-0.728,1.202c-0.353,0.375-0.776,0.666-1.268,0.871
					c-0.493,0.206-1.055,0.309-1.688,0.309c-0.574,0-1.114-0.103-1.622-0.309c-0.507-0.206-0.948-0.492-1.323-0.86
					c-0.375-0.367-0.673-0.803-0.894-1.307c-0.221-0.504-0.331-1.053-0.331-1.649c0-0.595,0.11-1.145,0.331-1.649
					c0.221-0.504,0.518-0.939,0.894-1.307c0.375-0.367,0.816-0.654,1.323-0.86c0.507-0.206,1.048-0.309,1.622-0.309
					c0.64,0,1.211,0.11,1.715,0.331c0.504,0.221,0.935,0.526,1.296,0.915l-1.025,1.004c-0.258-0.272-0.544-0.48-0.861-0.623
					c-0.316-0.143-0.695-0.215-1.136-0.215c-0.361,0-0.703,0.065-1.026,0.193c-0.324,0.129-0.607,0.311-0.85,0.546
					c-0.242,0.235-0.436,0.52-0.579,0.855c-0.143,0.335-0.215,0.708-0.215,1.119c0,0.412,0.072,0.785,0.215,1.12
					c0.143,0.335,0.338,0.62,0.584,0.855c0.246,0.235,0.531,0.418,0.855,0.546c0.323,0.129,0.669,0.193,1.037,0.193
					c0.419,0,0.773-0.061,1.064-0.182c0.29-0.121,0.538-0.278,0.744-0.469c0.148-0.132,0.275-0.3,0.381-0.502
					c0.106-0.202,0.189-0.428,0.248-0.678h-2.482V436.334z"/>
			</g>
			<g>
				<path style="fill:#FFFFFF;" d="M224.019,431.299c-0.006-1.224-0.959-2.121-2.189-2.14c-0.924-0.014-0.832,0.12-0.834-0.867
					c-0.003-1.097-0.007-2.194,0.003-3.292c0.003-0.379-0.112-0.691-0.362-0.976c-2.342-2.668-4.678-5.342-7.019-8.011
					c-0.12-0.137-0.275-0.244-0.414-0.366c-6.214,0-12.427,0-18.641,0c-0.794,0.293-1.14,0.868-1.138,1.709
					c0.01,3.748,0.004,7.496,0.004,11.243c0,0.556-0.003,0.589-0.55,0.551c-1.497-0.102-2.516,0.986-2.497,2.492
					c0.044,3.476,0.013,6.953,0.014,10.429c0.001,1.58,0.867,2.443,2.45,2.449c0.582,0.002,0.582,0.002,0.582,0.6
					c0,2.219-0.001,4.438,0.001,6.657c0.001,1.192,0.58,1.771,1.768,1.771c8.013,0.001,16.027,0.001,24.04,0
					c1.168,0,1.755-0.583,1.757-1.745c0.002-2.256,0-4.512,0.001-6.768c0-0.512,0.002-0.511,0.52-0.515
					c0.271-0.002,0.541,0.008,0.809-0.058c0.997-0.246,1.69-1.044,1.694-2.069C224.034,438.696,224.036,434.997,224.019,431.299z
					 M195.568,417.162c5.337,0,10.674,0,16.01,0c0.548,0,0.554,0.007,0.554,0.561c0.001,2.243-0.001,4.486,0.001,6.73
					c0.001,0.811,0.249,1.059,1.06,1.059c1.91,0.001,3.821,0,5.731,0.001c0.458,0,0.479,0.021,0.481,0.483
					c0.003,0.887,0.002,1.775,0,2.662c-0.001,0.477-0.024,0.498-0.504,0.499c-3.895,0.001-7.79,0-11.684,0
					c-3.882,0-7.765,0-11.647,0c-0.55,0-0.552-0.001-0.552-0.561c-0.001-3.624-0.001-7.247,0-10.871
					C195.018,417.166,195.022,417.162,195.568,417.162z M218.854,451.579c-3.883,0.001-7.766,0-11.65,0c-3.871,0-7.742,0-11.613,0
					c-0.572,0-0.574-0.002-0.574-0.579c-0.001-1.997-0.001-3.994,0.001-5.991c0-0.464,0.023-0.486,0.478-0.487
					c7.803-0.001,15.607-0.001,23.41,0c0.478,0,0.499,0.02,0.499,0.503c0.002,1.997,0.001,3.994,0,5.991
					C219.406,451.574,219.401,451.579,218.854,451.579z"/>
			</g>
			<g>
				<path style="fill:#FFFFFF;" d="M205.111,432.771h1.699l2.967,7.897h-1.644l-0.651-1.886h-3.044l-0.651,1.886h-1.643
					L205.111,432.771z M206.997,437.415l-0.706-1.974l-0.287-0.96h-0.088l-0.287,0.96l-0.706,1.974H206.997z"/>
				<path style="fill:#FFFFFF;" d="M211.331,434.536c-0.125,0-0.245-0.024-0.359-0.072c-0.114-0.048-0.213-0.114-0.298-0.199
					c-0.084-0.084-0.151-0.182-0.198-0.292c-0.048-0.11-0.072-0.232-0.072-0.364s0.024-0.254,0.072-0.364
					c0.048-0.11,0.114-0.208,0.198-0.292c0.084-0.084,0.184-0.151,0.298-0.198c0.114-0.048,0.233-0.072,0.359-0.072
					c0.257,0,0.478,0.09,0.662,0.27c0.184,0.181,0.276,0.399,0.276,0.656s-0.092,0.476-0.276,0.656
					C211.809,434.446,211.589,434.536,211.331,434.536z M210.615,440.669v-5.404h1.445v5.404H210.615z"/>
			</g>
			<g>
				<path style="fill:#FFFFFF;" d="M261.044,431.299c-0.006-1.224-0.959-2.121-2.189-2.14c-0.924-0.014-0.832,0.12-0.834-0.867
					c-0.003-1.097-0.007-2.194,0.003-3.292c0.003-0.379-0.112-0.691-0.362-0.976c-2.342-2.668-4.678-5.342-7.019-8.011
					c-0.12-0.137-0.275-0.244-0.414-0.366c-6.214,0-12.427,0-18.641,0c-0.794,0.293-1.14,0.868-1.138,1.709
					c0.01,3.748,0.004,7.496,0.004,11.243c0,0.556-0.003,0.589-0.55,0.551c-1.497-0.102-2.516,0.986-2.497,2.492
					c0.044,3.476,0.013,6.953,0.014,10.429c0.001,1.58,0.867,2.443,2.45,2.449c0.582,0.002,0.582,0.002,0.582,0.6
					c0,2.219-0.001,4.438,0.001,6.657c0.001,1.192,0.58,1.771,1.768,1.771c8.013,0.001,16.027,0.001,24.04,0
					c1.168,0,1.755-0.583,1.757-1.745c0.002-2.256,0-4.512,0.001-6.768c0-0.512,0.002-0.511,0.52-0.515
					c0.271-0.002,0.541,0.008,0.809-0.058c0.996-0.246,1.69-1.044,1.694-2.069C261.059,438.696,261.061,434.997,261.044,431.299z
					 M232.593,417.162c5.337,0,10.674,0,16.01,0c0.548,0,0.554,0.007,0.554,0.561c0.001,2.243-0.001,4.486,0.001,6.73
					c0.001,0.811,0.249,1.059,1.06,1.059c1.91,0.001,3.821,0,5.731,0.001c0.458,0,0.479,0.021,0.481,0.483
					c0.003,0.887,0.002,1.775,0,2.662c-0.001,0.477-0.024,0.498-0.504,0.499c-3.895,0.001-7.79,0-11.684,0
					c-3.882,0-7.765,0-11.647,0c-0.55,0-0.552-0.001-0.552-0.561c-0.001-3.624-0.001-7.247,0-10.871
					C232.042,417.166,232.047,417.162,232.593,417.162z M255.878,451.579c-3.883,0.001-7.766,0-11.65,0c-3.871,0-7.742,0-11.613,0
					c-0.572,0-0.574-0.002-0.574-0.579c-0.001-1.997-0.001-3.994,0.001-5.991c0-0.464,0.023-0.486,0.478-0.487
					c7.803-0.001,15.607-0.001,23.41,0c0.478,0,0.499,0.02,0.499,0.503c0.002,1.997,0.001,3.994,0,5.991
					C256.431,451.574,256.426,451.579,255.878,451.579z"/>
			</g>
			<g>
				<path style="fill:#FFFFFF;" d="M236.361,440.845c-0.338,0-0.662-0.048-0.971-0.143c-0.309-0.095-0.592-0.239-0.849-0.43
					c-0.257-0.191-0.481-0.425-0.673-0.7c-0.191-0.276-0.342-0.597-0.452-0.965l1.401-0.551c0.103,0.397,0.283,0.726,0.54,0.987
					c0.257,0.261,0.596,0.392,1.015,0.392c0.154,0,0.303-0.02,0.447-0.061c0.143-0.04,0.272-0.099,0.386-0.176
					s0.204-0.175,0.27-0.292c0.066-0.118,0.099-0.254,0.099-0.408c0-0.147-0.026-0.279-0.077-0.397
					c-0.051-0.117-0.138-0.227-0.259-0.331c-0.121-0.103-0.28-0.202-0.475-0.298c-0.195-0.095-0.435-0.195-0.722-0.298l-0.485-0.176
					c-0.213-0.073-0.429-0.173-0.645-0.298c-0.217-0.125-0.413-0.276-0.59-0.452c-0.177-0.176-0.322-0.384-0.436-0.623
					c-0.114-0.239-0.171-0.509-0.171-0.81c0-0.309,0.06-0.597,0.182-0.866c0.121-0.268,0.294-0.503,0.518-0.706
					c0.224-0.202,0.492-0.36,0.805-0.474s0.66-0.171,1.042-0.171c0.397,0,0.74,0.053,1.031,0.16
					c0.291,0.107,0.537,0.243,0.739,0.408c0.202,0.165,0.366,0.348,0.491,0.546c0.125,0.199,0.217,0.386,0.276,0.563l-1.312,0.551
					c-0.074-0.221-0.208-0.419-0.402-0.596c-0.195-0.176-0.462-0.265-0.8-0.265c-0.324,0-0.592,0.075-0.805,0.226
					c-0.213,0.151-0.32,0.348-0.32,0.59c0,0.235,0.103,0.436,0.309,0.601c0.206,0.165,0.533,0.325,0.982,0.48l0.497,0.165
					c0.316,0.111,0.605,0.237,0.866,0.381c0.261,0.143,0.485,0.314,0.673,0.513c0.187,0.199,0.331,0.425,0.43,0.678
					c0.1,0.254,0.149,0.546,0.149,0.877c0,0.412-0.083,0.767-0.248,1.064c-0.165,0.298-0.377,0.542-0.634,0.734
					c-0.258,0.191-0.548,0.335-0.872,0.43C236.986,440.797,236.67,440.845,236.361,440.845z"/>
				<path style="fill:#FFFFFF;" d="M239.516,432.771h1.61l1.633,4.754l0.287,1.015h0.088l0.309-1.015l1.699-4.754h1.61l-2.879,7.897
					h-1.566L239.516,432.771z"/>
				<path style="fill:#FFFFFF;" d="M251.097,436.334h3.871c0.022,0.089,0.04,0.195,0.055,0.32c0.015,0.125,0.023,0.25,0.023,0.375
					c0,0.507-0.078,0.985-0.232,1.434c-0.154,0.449-0.397,0.849-0.728,1.202c-0.353,0.375-0.775,0.666-1.268,0.871
					c-0.493,0.206-1.055,0.309-1.688,0.309c-0.574,0-1.114-0.103-1.621-0.309c-0.507-0.206-0.949-0.492-1.324-0.86
					c-0.375-0.367-0.673-0.803-0.894-1.307c-0.22-0.504-0.331-1.053-0.331-1.649c0-0.595,0.11-1.145,0.331-1.649
					c0.221-0.504,0.518-0.939,0.894-1.307c0.375-0.367,0.816-0.654,1.324-0.86c0.507-0.206,1.047-0.309,1.621-0.309
					c0.64,0,1.211,0.11,1.715,0.331c0.504,0.221,0.936,0.526,1.296,0.915l-1.026,1.004c-0.257-0.272-0.544-0.48-0.861-0.623
					c-0.316-0.143-0.694-0.215-1.136-0.215c-0.36,0-0.702,0.065-1.026,0.193c-0.323,0.129-0.607,0.311-0.849,0.546
					c-0.243,0.235-0.436,0.52-0.579,0.855c-0.143,0.335-0.215,0.708-0.215,1.119c0,0.412,0.072,0.785,0.215,1.12
					c0.143,0.335,0.338,0.62,0.585,0.855c0.246,0.235,0.531,0.418,0.854,0.546c0.324,0.129,0.669,0.193,1.037,0.193
					c0.419,0,0.774-0.061,1.064-0.182c0.29-0.121,0.539-0.278,0.745-0.469c0.147-0.132,0.274-0.3,0.38-0.502
					c0.107-0.202,0.189-0.428,0.248-0.678h-2.482V436.334z"/>
			</g>
			<g>
				<path style="fill:#FFFFFF;" d="M297.3,431.299c-0.006-1.224-0.959-2.121-2.189-2.14c-0.924-0.014-0.832,0.12-0.834-0.867
					c-0.003-1.097-0.007-2.194,0.003-3.292c0.003-0.379-0.112-0.691-0.362-0.976c-2.342-2.668-4.678-5.342-7.019-8.011
					c-0.12-0.137-0.275-0.244-0.414-0.366c-6.214,0-12.427,0-18.641,0c-0.794,0.293-1.14,0.868-1.138,1.709
					c0.01,3.748,0.004,7.496,0.004,11.243c0,0.556-0.003,0.589-0.55,0.551c-1.497-0.102-2.516,0.986-2.497,2.492
					c0.044,3.476,0.013,6.953,0.014,10.429c0.001,1.58,0.867,2.443,2.45,2.449c0.582,0.002,0.582,0.002,0.582,0.6
					c0,2.219-0.001,4.438,0.001,6.657c0.001,1.192,0.58,1.771,1.768,1.771c8.013,0.001,16.027,0.001,24.04,0
					c1.168,0,1.755-0.583,1.757-1.745c0.002-2.256,0-4.512,0.001-6.768c0-0.512,0.002-0.511,0.52-0.515
					c0.271-0.002,0.541,0.008,0.809-0.058c0.996-0.246,1.69-1.044,1.694-2.069C297.315,438.696,297.318,434.997,297.3,431.299z
					 M268.85,417.162c5.337,0,10.674,0,16.01,0c0.548,0,0.554,0.007,0.554,0.561c0.001,2.243-0.001,4.486,0.001,6.73
					c0.001,0.811,0.249,1.059,1.06,1.059c1.91,0.001,3.821,0,5.731,0.001c0.458,0,0.479,0.021,0.481,0.483
					c0.003,0.887,0.002,1.775,0,2.662c-0.001,0.477-0.024,0.498-0.504,0.499c-3.895,0.001-7.79,0-11.684,0
					c-3.882,0-7.765,0-11.647,0c-0.55,0-0.552-0.001-0.552-0.561c-0.001-3.624-0.001-7.247,0-10.871
					C268.299,417.166,268.303,417.162,268.85,417.162z M292.135,451.579c-3.883,0.001-7.766,0-11.65,0c-3.871,0-7.742,0-11.613,0
					c-0.572,0-0.574-0.002-0.574-0.579c-0.001-1.997-0.001-3.994,0.001-5.991c0-0.464,0.023-0.486,0.478-0.487
					c7.803-0.001,15.607-0.001,23.41,0c0.478,0,0.499,0.02,0.499,0.503c0.001,1.997,0.001,3.994,0,5.991
					C292.687,451.574,292.682,451.579,292.135,451.579z"/>
			</g>
			<g>
				<path style="fill:#FFFFFF;" d="M272.966,434.183v1.831h3.165v1.412h-3.165v1.831h3.518v1.412h-5.007v-7.897h5.007v1.412H272.966
					z"/>
				<path style="fill:#FFFFFF;" d="M277.852,440.669v-7.897h2.779c0.375,0,0.726,0.061,1.053,0.182
					c0.327,0.121,0.612,0.292,0.855,0.513c0.243,0.221,0.434,0.483,0.574,0.789c0.14,0.305,0.209,0.642,0.209,1.009
					c0,0.375-0.07,0.715-0.209,1.02c-0.14,0.305-0.331,0.568-0.574,0.789c-0.243,0.221-0.528,0.392-0.855,0.513
					c-0.327,0.121-0.678,0.182-1.053,0.182h-1.29v2.901H277.852z M280.653,436.356c0.389,0,0.684-0.111,0.882-0.331
					c0.199-0.22,0.298-0.474,0.298-0.761c0-0.14-0.024-0.276-0.072-0.408c-0.048-0.132-0.121-0.248-0.221-0.347
					c-0.099-0.099-0.222-0.178-0.37-0.237c-0.147-0.059-0.32-0.089-0.518-0.089h-1.312v2.173H280.653z"/>
				<path style="fill:#FFFFFF;" d="M286.797,440.845c-0.338,0-0.662-0.048-0.971-0.143c-0.309-0.095-0.592-0.239-0.849-0.43
					c-0.257-0.191-0.482-0.425-0.673-0.7c-0.191-0.276-0.342-0.597-0.452-0.965l1.401-0.551c0.103,0.397,0.283,0.726,0.541,0.987
					c0.257,0.261,0.595,0.392,1.015,0.392c0.154,0,0.303-0.02,0.447-0.061c0.143-0.04,0.272-0.099,0.386-0.176
					c0.114-0.077,0.204-0.175,0.27-0.292c0.066-0.118,0.1-0.254,0.1-0.408c0-0.147-0.026-0.279-0.077-0.397
					c-0.051-0.117-0.138-0.227-0.259-0.331c-0.121-0.103-0.279-0.202-0.474-0.298c-0.195-0.095-0.436-0.195-0.723-0.298
					l-0.485-0.176c-0.213-0.073-0.428-0.173-0.645-0.298c-0.217-0.125-0.414-0.276-0.59-0.452c-0.176-0.176-0.322-0.384-0.436-0.623
					c-0.114-0.239-0.171-0.509-0.171-0.81c0-0.309,0.061-0.597,0.182-0.866c0.121-0.268,0.294-0.503,0.518-0.706
					c0.224-0.202,0.493-0.36,0.805-0.474c0.312-0.114,0.66-0.171,1.042-0.171c0.397,0,0.741,0.053,1.031,0.16
					c0.29,0.107,0.537,0.243,0.739,0.408c0.202,0.165,0.365,0.348,0.491,0.546c0.125,0.199,0.217,0.386,0.276,0.563l-1.312,0.551
					c-0.074-0.221-0.208-0.419-0.403-0.596c-0.195-0.176-0.462-0.265-0.799-0.265c-0.324,0-0.592,0.075-0.805,0.226
					c-0.213,0.151-0.32,0.348-0.32,0.59c0,0.235,0.103,0.436,0.309,0.601c0.206,0.165,0.533,0.325,0.982,0.48l0.496,0.165
					c0.316,0.111,0.605,0.237,0.866,0.381c0.261,0.143,0.485,0.314,0.673,0.513c0.187,0.199,0.331,0.425,0.43,0.678
					c0.099,0.254,0.149,0.546,0.149,0.877c0,0.412-0.083,0.767-0.248,1.064c-0.165,0.298-0.377,0.542-0.634,0.734
					c-0.258,0.191-0.548,0.335-0.872,0.43C287.422,440.797,287.105,440.845,286.797,440.845z"/>
			</g>
			<g>
				<path style="fill:#FFFFFF;" d="M321.394,439.168l4.004-4.985h-3.827v-1.412h5.559v1.5l-3.96,4.985h4.004v1.412h-5.779V439.168z"
					/>
				<path style="fill:#FFFFFF;" d="M328.409,432.771h1.489v7.897h-1.489V432.771z"/>
				<path style="fill:#FFFFFF;" d="M331.486,440.669v-7.897h2.779c0.375,0,0.726,0.061,1.053,0.182
					c0.327,0.121,0.612,0.292,0.855,0.513s0.434,0.483,0.574,0.789c0.14,0.305,0.209,0.642,0.209,1.009
					c0,0.375-0.07,0.715-0.209,1.02c-0.14,0.305-0.331,0.568-0.574,0.789c-0.243,0.221-0.528,0.392-0.855,0.513
					c-0.327,0.121-0.678,0.182-1.053,0.182h-1.29v2.901H331.486z M334.288,436.356c0.389,0,0.684-0.111,0.882-0.331
					c0.199-0.22,0.298-0.474,0.298-0.761c0-0.14-0.024-0.276-0.072-0.408c-0.048-0.132-0.121-0.248-0.221-0.347
					c-0.099-0.099-0.222-0.178-0.37-0.237c-0.147-0.059-0.32-0.089-0.518-0.089h-1.312v2.173H334.288z"/>
			</g>
		</g>
		<g style="opacity:0.61;">
			<path style="fill:#FFFFFF;" d="M300.133,433.27h9.067v2.242h-9.067V433.27z M300.133,437.136h9.067v2.243h-9.067V437.136z"/>
		</g>
	</g>
	<g style="opacity:0.61;">
		<path style="fill:#FFFFFF;" d="M156.756,478.878h1.607c1.263,0,2.114,0.812,2.114,1.974c0,1.161-0.851,1.973-2.114,1.973h-1.607
			V478.878z M158.34,482.464c1.049,0,1.725-0.665,1.725-1.612c0-0.947-0.677-1.613-1.725-1.613h-1.167v3.225H158.34z"/>
		<path style="fill:#FFFFFF;" d="M165.139,480.851c0-1.15,0.879-2.007,2.075-2.007c1.184,0,2.069,0.851,2.069,2.007
			c0,1.156-0.885,2.007-2.069,2.007C166.019,482.858,165.139,482.002,165.139,480.851z M168.866,480.851
			c0-0.942-0.705-1.635-1.652-1.635c-0.953,0-1.663,0.693-1.663,1.635c0,0.941,0.71,1.635,1.663,1.635
			C168.162,482.486,168.866,481.793,168.866,480.851z"/>
		<path style="fill:#FFFFFF;" d="M179.596,478.878l-1.331,3.947h-0.44l-1.156-3.366l-1.161,3.366h-0.434l-1.331-3.947h0.429
			l1.139,3.394l1.178-3.394h0.389l1.161,3.411l1.156-3.411H179.596z"/>
		<path style="fill:#FFFFFF;" d="M187.731,478.878v3.947h-0.344l-2.537-3.202v3.202h-0.417v-3.947h0.344l2.543,3.203v-3.203H187.731
			z"/>
		<path style="fill:#FFFFFF;" d="M193.093,478.878h0.417v3.586h2.21v0.361h-2.627V478.878z"/>
		<path style="fill:#FFFFFF;" d="M200.061,480.851c0-1.15,0.879-2.007,2.075-2.007c1.184,0,2.069,0.851,2.069,2.007
			c0,1.156-0.885,2.007-2.069,2.007C200.941,482.858,200.061,482.002,200.061,480.851z M203.788,480.851
			c0-0.942-0.705-1.635-1.652-1.635c-0.953,0-1.663,0.693-1.663,1.635c0,0.941,0.71,1.635,1.663,1.635
			C203.083,482.486,203.788,481.793,203.788,480.851z"/>
		<path style="fill:#FFFFFF;" d="M211.636,481.77h-2.199l-0.474,1.054h-0.434l1.804-3.947h0.412l1.804,3.947h-0.44L211.636,481.77z
			 M211.484,481.432l-0.947-2.12l-0.947,2.12H211.484z"/>
		<path style="fill:#FFFFFF;" d="M217.28,478.878h1.607c1.263,0,2.114,0.812,2.114,1.974c0,1.161-0.851,1.973-2.114,1.973h-1.607
			V478.878z M218.864,482.464c1.049,0,1.725-0.665,1.725-1.612c0-0.947-0.677-1.613-1.725-1.613h-1.167v3.225H218.864z"/>
		<path style="fill:#FFFFFF;" d="M234.041,481.77h-2.199l-0.474,1.054h-0.434l1.804-3.947h0.412l1.804,3.947h-0.44L234.041,481.77z
			 M233.889,481.432l-0.947-2.12l-0.947,2.12H233.889z"/>
		<path style="fill:#FFFFFF;" d="M239.685,478.878h0.417v3.586h2.21v0.361h-2.627V478.878z"/>
		<path style="fill:#FFFFFF;" d="M247.082,478.878h0.417v3.586h2.21v0.361h-2.627V478.878z"/>
		<path style="fill:#FFFFFF;" d="M260.449,479.239v1.551h2.041v0.361h-2.041v1.675h-0.417v-3.947h2.706v0.361H260.449z"/>
		<path style="fill:#FFFFFF;" d="M267.678,478.878h0.417v3.947h-0.417V478.878z"/>
		<path style="fill:#FFFFFF;" d="M273.456,478.878h0.417v3.586h2.21v0.361h-2.627V478.878z"/>
		<path style="fill:#FFFFFF;" d="M283.644,482.464v0.361h-2.791v-3.947h2.706v0.361h-2.289v1.404h2.041v0.355h-2.041v1.466H283.644z
			"/>
		<path style="fill:#FFFFFF;" d="M294.672,479.239v1.551h2.041v0.361h-2.041v1.675h-0.417v-3.947h2.706v0.361H294.672z"/>
		<path style="fill:#FFFFFF;" d="M301.5,480.851c0-1.15,0.879-2.007,2.075-2.007c1.184,0,2.069,0.851,2.069,2.007
			c0,1.156-0.885,2.007-2.069,2.007C302.379,482.858,301.5,482.002,301.5,480.851z M305.226,480.851
			c0-0.942-0.705-1.635-1.652-1.635c-0.953,0-1.663,0.693-1.663,1.635c0,0.941,0.71,1.635,1.663,1.635
			C304.522,482.486,305.226,481.793,305.226,480.851z"/>
		<path style="fill:#FFFFFF;" d="M313.351,482.825l-0.902-1.269c-0.102,0.011-0.203,0.017-0.316,0.017h-1.06v1.252h-0.417v-3.947
			h1.477c1.004,0,1.613,0.507,1.613,1.353c0,0.62-0.327,1.054-0.902,1.24l0.964,1.353H313.351z M313.328,480.231
			c0-0.632-0.417-0.992-1.207-0.992h-1.048v1.979h1.048C312.911,481.218,313.328,480.851,313.328,480.231z"/>
		<path style="fill:#FFFFFF;" d="M322.907,478.878v3.947h-0.4v-3.158l-1.551,2.656h-0.197l-1.551-2.639v3.14h-0.4v-3.947h0.344
			l1.714,2.926l1.697-2.926H322.907z"/>
		<path style="fill:#FFFFFF;" d="M330.744,481.77h-2.199l-0.473,1.054h-0.434l1.804-3.947h0.411l1.804,3.947h-0.44L330.744,481.77z
			 M330.592,481.432l-0.947-2.12l-0.947,2.12H330.592z"/>
		<path style="fill:#FFFFFF;" d="M336.957,479.239h-1.387v-0.361h3.192v0.361h-1.387v3.586h-0.417V479.239z"/>
		<path style="fill:#FFFFFF;" d="M343.063,482.346l0.164-0.321c0.282,0.276,0.784,0.479,1.302,0.479c0.739,0,1.06-0.31,1.06-0.699
			c0-1.083-2.43-0.417-2.43-1.877c0-0.581,0.451-1.083,1.455-1.083c0.446,0,0.908,0.13,1.224,0.35l-0.141,0.333
			c-0.338-0.22-0.733-0.327-1.083-0.327c-0.722,0-1.043,0.321-1.043,0.716c0,1.083,2.43,0.429,2.43,1.866
			c0,0.581-0.462,1.077-1.472,1.077C343.937,482.858,343.356,482.65,343.063,482.346z"/>
	</g>
</g>
<g>
</g>
<g>
	
		<rect x="144.867" y="25" transform="matrix(-1.836970e-16 1 -1 -1.836970e-16 500 5.684342e-14)" style="fill:#0076A3;" width="210.266" height="450"/>
	<g>
		<path style="fill:#FFFFFF;" d="M297.513,271.983c2.484,3.6,6.078,4.904,10.303,4.9c13.648-0.011,27.295-0.004,40.943-0.006
			c0.468,0,0.936-0.013,1.403-0.035c6.16-0.292,10.807-4.775,10.913-10.931c0.148-8.609,0.12-17.224,0.006-25.834
			c-0.065-4.978-3.211-9.048-7.817-10.369c-1.474-0.423-3.067-0.582-4.609-0.596c-6.784-0.062-13.57-0.027-20.354-0.027
			c-6.746,0-13.492-0.02-20.238,0.017c-1.315,0.007-2.665,0.09-3.938,0.393c-5.365,1.278-8.537,5.442-8.616,11.555
			c-0.103,7.948-0.037,15.899-0.019,23.848C295.498,267.44,296.049,269.861,297.513,271.983z M318.506,252.273
			c2.623-4.321,8.26-13.639,8.488-13.953c0.964-1.331,1.92-1.345,2.862-0.012c0.47,0.666,5.757,9.749,8.203,13.441
			c4.56,6.881,0.307,14.966-7.012,16.569c-0.831,0.182-1.776,0.083-2.622,0.192c-6.004-0.09-10.901-4.386-11.393-10.104
			C316.844,256.213,317.36,254.161,318.506,252.273z"/>
		<path style="fill:#FFFFFF;" d="M211.745,276.616c2.417,0,4.835,0.001,7.252,0c1.808-0.001,1.926-0.117,1.926-1.92
			c0.001-9.936,0.001-19.872,0.001-29.809c0-0.463,0-0.926,0-1.388c0.1-0.076,0.201-0.152,0.301-0.228
			c0.361,0.34,0.804,0.626,1.07,1.029c6.733,10.209,13.464,20.418,20.141,30.663c0.797,1.224,1.689,1.758,3.152,1.68
			c2.022-0.108,4.056-0.087,6.08-0.005c1.241,0.05,2.037-0.41,2.696-1.438c2.248-3.509,4.554-6.98,6.837-10.466
			c4.46-6.809,8.916-13.62,13.393-20.418c0.27-0.409,0.711-0.706,1.072-1.054c0.101,0.072,0.203,0.145,0.304,0.217
			c0,0.463,0,0.926,0,1.389c0,10.014-0.002,20.028,0.002,30.043c0.001,1.467,0.235,1.699,1.694,1.703
			c2.69,0.007,5.381,0.007,8.071,0c1.38-0.004,1.602-0.224,1.602-1.657c0.004-14.651,0.005-29.302,0-43.953
			c0-1.452-0.221-1.652-1.725-1.653c-3.86-0.004-7.721,0.057-11.579-0.032c-1.419-0.033-2.28,0.445-3.053,1.629
			c-7.091,10.858-14.236,21.681-21.366,32.514c-0.95,1.443-1.385,1.449-2.317,0.033c-7.172-10.898-14.352-21.792-21.501-32.705
			c-0.663-1.012-1.406-1.492-2.666-1.468c-3.898,0.075-7.798,0.026-11.697,0.028c-1.686,0.001-1.886,0.196-1.886,1.869
			c-0.003,7.014-0.001,14.028-0.001,21.042c0,7.404,0,14.807,0,22.211C209.548,276.531,209.635,276.615,211.745,276.616z"/>
		<path style="fill:#FFFFFF;" d="M371.391,276.613c2.651,0.01,5.302,0.005,7.953,0.003c1.702-0.002,1.844-0.146,1.845-1.884
			c0.002-10.48,0.001-20.96,0.001-31.44c0-0.463,0-0.925,0-1.785c0.699,0.344,1.224,0.486,1.596,0.805
			c2.07,1.776,4.103,3.595,6.15,5.398c10.585,9.325,21.165,18.657,31.775,27.953c0.541,0.474,1.345,0.891,2.038,0.91
			c3.35,0.094,6.704,0.021,10.057,0.054c1.122,0.011,1.512-0.489,1.511-1.559c-0.013-14.726-0.007-29.453-0.013-44.179
			c0-1.268-0.294-1.534-1.622-1.538c-2.651-0.008-5.302-0.005-7.953-0.002c-1.703,0.002-1.851,0.153-1.851,1.886
			c-0.001,10.519,0,21.038,0,31.557c0,0.453,0,0.907,0,1.663c-0.685-0.353-1.205-0.505-1.574-0.829
			c-6.598-5.774-13.178-11.569-19.762-17.36c-5.999-5.276-12.006-10.542-17.985-15.841c-0.869-0.77-1.761-1.13-2.941-1.102
			c-3.039,0.072-6.081,0.02-9.122,0.026c-1.396,0.003-1.674,0.258-1.675,1.608c-0.005,14.688-0.005,29.375,0,44.063
			C369.819,276.327,370.105,276.607,371.391,276.613z"/>
		<path style="fill:#FFFFFF;" d="M134.162,266.425c0.409,5.146,3.398,8.645,8.428,9.717c1.473,0.314,3.01,0.443,4.519,0.453
			c6.551,0.048,13.102,0.02,19.652,0.021c6.551,0,13.102,0.013,19.653-0.011c1.243-0.005,2.5-0.065,3.726-0.255
			c4.51-0.699,7.732-3.013,8.946-7.575c0.357-1.34,0.546-2.765,0.551-4.152c0.044-11.223,0.028-22.446,0.025-33.669
			c0-1.38-0.233-1.599-1.663-1.603c-2.534-0.007-5.069-0.003-7.604-0.002c-2.027,0-2.063,0.036-2.063,2.121
			c-0.001,10.288,0,20.575-0.001,30.863c0,4.209-0.841,5.049-5.073,5.05c-10.957,0.002-21.914,0.003-32.871-0.004
			c-0.661,0-1.327-0.028-1.983-0.106c-1.895-0.223-2.854-1.228-3-3.122c-0.039-0.504-0.022-1.013-0.022-1.519
			c-0.001-10.444,0-20.887-0.001-31.331c0-1.886-0.067-1.951-1.998-1.952c-2.457-0.001-4.913-0.001-7.37,0
			c-1.854,0.001-1.967,0.114-1.967,2.007c-0.001,10.794-0.003,21.589,0.004,32.383C134.052,264.634,134.091,265.532,134.162,266.425
			z"/>
		<path style="fill:#FFFFFF;" d="M70.842,276.614c2.806,0.006,5.613,0.002,8.419,0.002c16.02,0,32.04,0.001,48.06-0.001
			c1.623,0,1.825-0.199,1.832-1.801c0.007-1.753,0.003-3.506,0.002-5.259c-0.001-2.082-0.089-2.171-2.171-2.171
			c-14.968-0.001-29.935,0-44.903,0c-0.495,0-0.99,0-1.631,0c0-0.635,0-1.13,0-1.624c0-11.53,0.001-23.06-0.002-34.591
			c0-1.672-0.148-1.817-1.779-1.819c-2.612-0.003-5.223-0.005-7.835,0.001c-1.51,0.003-1.717,0.201-1.717,1.666
			c-0.003,14.646-0.003,29.293,0,43.939C69.117,276.417,69.323,276.611,70.842,276.614z"/>
		<path style="fill:#FFFFFF;" d="M411.718,329.547c0.562-0.23,1.124-0.46,1.684-0.694c0.724-0.303,1.44-0.609,2.156-0.916
			c0.563-0.242,1.126-0.484,1.687-0.73c0.842-0.369,1.676-0.741,2.505-1.116c0.347-0.157,0.693-0.313,1.039-0.471
			c41.131-18.787,66.46-44.398,66.46-72.632c0-20.205-12.98-39.064-35.427-55.044c-0.006-0.004-0.012-0.008-0.018-0.013
			c-1.025-0.729-2.069-1.452-3.133-2.169c-0.008-0.006-0.017-0.011-0.025-0.017c-6.217-4.189-13.095-8.167-20.571-11.906
			c-7.172-3.601-14.522-6.796-22.015-9.666c-10.516-4.046-21.856-7.681-33.884-10.86c-0.412-0.109-0.824-0.216-1.236-0.324
			c-1.19-0.31-2.385-0.616-3.587-0.917c-0.793-0.199-1.586-0.396-2.38-0.589c-1.12-0.273-2.248-0.539-3.378-0.804
			c-0.543-0.127-1.086-0.257-1.629-0.381c-20.935-4.81-43.703-8.271-67.723-10.121c-0.131-0.026-0.262-0.053-0.393-0.077
			c-0.219,0-0.437,0-0.656,0c-12.882-0.966-26.114-1.476-39.617-1.476s-26.735,0.51-39.617,1.476c-0.198,0-0.397,0-0.595,0
			c-0.089,0.019-0.178,0.041-0.267,0.063c-110.868,8.5-195.193,51.298-195.193,102.824c0,35.597,40.256,67.026,101.697,85.861
			c0.289,0.089,0.578,0.179,0.868,0.266c37.876,11.501,83.713,18.235,133.107,18.235c60.286,0,115.274-10.029,156.95-26.518
			c0.242-0.095,0.484-0.189,0.725-0.285C410.081,330.217,410.9,329.882,411.718,329.547z M54.374,252.596
			c-0.072-0.929-0.561-1.418-1.482-1.473c-0.35-0.021-0.702-0.007-1.053-0.007c-10.06,0-20.121,0.001-30.181,0.001
			c-0.46,0-0.921,0-1.696,0c0.377-2.58,0.606-5.047,1.112-7.455c1.9-9.047,6.316-16.855,12.1-23.948
			c6.837-8.384,15.08-15.194,24.033-21.179c2.88-1.925,5.862-3.7,8.824-5.499c0.471-0.286,1.086-0.469,1.635-0.471
			c11.815-0.032,23.63-0.032,35.445-0.033c0.293,0,0.586,0.053,0.966,0.089c-2.458,2.22-4.864,4.313-7.18,6.5
			c-4.346,4.103-8.291,8.568-11.814,13.399c-0.89,1.22-0.922,1.946-0.141,2.542c0.804,0.614,2.604,0.354,3.283-0.487
			c1.688-2.091,3.311-4.239,5.067-6.272c4.935-5.717,10.545-10.717,16.544-15.287c0.371-0.282,0.912-0.481,1.374-0.482
			c22.46-0.031,44.92-0.035,67.38-0.041c0.152,0,0.304,0.027,0.637,0.059c-0.21,0.401-0.366,0.73-0.549,1.042
			c-3.587,6.087-6.53,12.476-8.923,19.119c-0.523,1.452-0.315,2.246,0.642,2.568c1.401,0.471,2.49-0.023,2.977-1.388
			c2.545-7.137,5.811-13.925,9.767-20.389c0.458-0.748,0.929-1.052,1.839-1.052c44.413,0.013,88.826-0.001,133.24-0.042
			c0.916-0.001,1.372,0.316,1.827,1.058c3.942,6.427,7.2,13.176,9.736,20.275c0.542,1.516,1.31,1.932,2.878,1.573
			c0.978-0.224,1.372-1.048,0.902-2.222c-1.445-3.61-2.83-7.251-4.457-10.779c-1.528-3.312-3.334-6.496-5.058-9.814
			c0.295-0.022,0.619-0.067,0.943-0.068c22.226-0.007,44.452-0.015,66.678,0.014c0.598,0.001,1.297,0.265,1.778,0.631
			c8.078,6.141,15.344,13.104,21.391,21.287c0.691,0.935,2.066,1.313,3.112,0.885c0.952-0.389,1.172-1.433,0.393-2.422
			c-2.048-2.601-3.966-5.338-6.267-7.699c-3.993-4.096-8.236-7.95-12.376-11.903c-0.221-0.211-0.457-0.405-0.83-0.734
			c0.48-0.033,0.803-0.075,1.126-0.075c11.737-0.005,23.474-0.011,35.211,0.007c0.518,0.001,1.105,0.101,1.544,0.355
			c10.671,6.178,20.653,13.27,29.173,22.258c6.499,6.855,11.802,14.483,14.839,23.525c1.344,4.004,2.183,8.107,2.31,12.539
			c-0.499,0-0.944,0-1.39,0c-10.255,0-20.51,0-30.766,0.002c-1.721,0-2.219,0.562-2.075,2.279c0.078,0.931,0.581,1.406,1.499,1.456
			c0.311,0.017,0.624,0.006,0.936,0.006c10.099,0,20.198,0,30.298-0.001c0.46,0,0.92,0,1.68,0c-0.381,2.593-0.614,5.062-1.12,7.475
			c-1.892,9.007-6.284,16.784-12.034,23.853c-6.852,8.424-15.122,15.261-24.11,21.265c-2.848,1.903-5.799,3.654-8.724,5.44
			c-0.408,0.249-0.933,0.433-1.405,0.434c-12.01,0.025-24.02,0.022-36.03,0.022c-0.149,0-0.299-0.027-0.701-0.065
			c1.578-1.371,3-2.572,4.385-3.815c5.382-4.831,10.293-10.094,14.561-15.942c0.948-1.299,0.988-2.03,0.169-2.629
			c-0.823-0.601-2.584-0.31-3.28,0.525c-2.521,3.019-4.955,6.117-7.597,9.027c-4.176,4.599-8.885,8.635-13.842,12.372
			c-0.498,0.375-1.283,0.52-1.934,0.521c-22.07,0.032-44.14,0.033-66.21,0.038c-0.386,0-0.773,0-1.385,0
			c0.275-0.51,0.455-0.872,0.659-1.219c3.545-6.022,6.439-12.347,8.805-18.916c0.518-1.438,0.297-2.245-0.665-2.557
			c-1.419-0.459-2.472,0.029-2.965,1.412c-2.52,7.062-5.742,13.786-9.652,20.186c-0.474,0.775-0.957,1.125-1.919,1.125
			c-44.413,0.001-88.826,0.03-133.239,0.086c-0.953,0.001-1.452-0.326-1.929-1.107c-3.908-6.401-7.15-13.115-9.667-20.179
			c-0.532-1.493-1.348-1.924-2.893-1.55c-0.936,0.227-1.335,1.035-0.921,2.133c0.974,2.584,1.863,5.214,3.047,7.701
			c1.938,4.072,4.082,8.046,6.139,12.061c0.122,0.239,0.242,0.479,0.43,0.849c-0.414,0.034-0.737,0.084-1.061,0.084
			c-22.226,0.009-44.452,0.019-66.678-0.004c-0.569-0.001-1.239-0.222-1.69-0.566c-8.076-6.143-15.35-13.097-21.397-21.281
			c-0.705-0.954-2.028-1.34-3.102-0.931c-0.961,0.366-1.21,1.433-0.446,2.409c1.993,2.545,3.857,5.226,6.103,7.531
			c4.019,4.126,8.28,8.016,12.441,12.003c0.221,0.212,0.461,0.405,0.859,0.753c-0.463,0.053-0.736,0.111-1.01,0.111
			c-11.815,0.007-23.63,0.013-35.445-0.005c-0.478-0.001-1.014-0.129-1.425-0.367c-10.637-6.16-20.58-13.238-29.075-22.195
			c-6.501-6.854-11.805-14.48-14.845-23.521c-1.258-3.743-2.073-7.578-2.273-11.532c-0.015-0.3-0.002-0.602-0.002-1.024
			c0.533,0,0.991,0,1.449,0c10.216,0,20.432,0,30.649-0.002C54.018,254.857,54.507,254.315,54.374,252.596z M362.433,174.709
			c8.236,3.744,16.149,8.094,23.686,13.11c0.406,0.27,0.796,0.563,1.193,0.845c-0.023,0.074-0.045,0.149-0.068,0.223
			c-0.369,0-0.738,0-1.107,0c-21.132,0.004-42.264,0.002-63.396,0.031c-0.841,0.001-1.319-0.258-1.788-0.948
			c-7.865-11.57-17.598-21.213-29.742-28.261c-3.523-2.044-7.308-3.637-10.974-5.435c-0.333-0.163-0.674-0.308-0.983-0.534
			C308.099,156.34,335.988,162.686,362.433,174.709z M326.377,158.021c0.005-0.051,0.011-0.101,0.016-0.152
			c0.169,0.043,0.338,0.086,0.507,0.129C326.726,158.006,326.551,158.014,326.377,158.021z M327.123,158.041
			c3.653,0.553,7.315,1.041,10.95,1.683c13.427,2.372,26.727,5.32,39.841,9.066c16.915,4.832,33.397,10.805,49.134,18.73
			c0.711,0.358,1.416,0.727,2.053,1.351c-0.29,0-0.579,0-0.869,0c-11.035,0.002-22.07,0.01-33.106-0.01
			c-0.508-0.001-1.113-0.124-1.51-0.413c-12.582-9.16-26.298-16.201-40.757-21.864c-8.053-3.154-16.269-5.813-24.614-8.08
			C327.858,158.398,327.494,158.205,327.123,158.041z M299.066,169.64c6.77,5.357,12.529,11.677,17.546,18.685
			c0.086,0.12,0.145,0.259,0.282,0.506c-43.558,0-87.015,0-130.666,0c1.026-1.379,1.944-2.666,2.916-3.91
			c7.477-9.57,16.37-17.511,27.067-23.346c8.536-4.656,17.624-7.647,27.313-8.658C264.363,150.744,282.765,156.742,299.066,169.64z
			 M221.875,154.721c-16.52,7.023-29.409,18.383-39.481,33.081c-0.61,0.89-1.238,1.158-2.269,1.157
			c-20.975-0.024-41.949-0.013-62.924-0.009c-0.427,0-0.853,0-1.28,0c-0.04-0.091-0.081-0.183-0.121-0.274
			c1.784-1.154,3.548-2.341,5.355-3.458c15.67-9.693,32.534-16.644,50.181-21.793c12.241-3.571,24.684-6.215,37.315-7.954
			c5.085-0.7,10.189-1.266,15.345-1.647C223.289,154.122,222.581,154.42,221.875,154.721z M176.298,158.002
			c0.168-0.057,0.336-0.114,0.504-0.171c0.006,0.057,0.011,0.114,0.017,0.171C176.645,158.002,176.471,158.002,176.298,158.002z
			 M175.199,158.452c-14.85,3.993-29.218,9.26-42.949,16.212c-7.866,3.983-15.392,8.523-22.531,13.703
			c-0.438,0.317-1.046,0.564-1.576,0.566c-11.148,0.035-22.296,0.03-33.444,0.03c-0.252,0-0.503-0.034-0.807-0.247
			c0.633-0.335,1.262-0.68,1.901-1.003c15.292-7.746,31.303-13.637,47.74-18.41c15.192-4.411,30.614-7.813,46.231-10.335
			c2.117-0.342,4.245-0.621,6.367-0.928C175.822,158.185,175.523,158.365,175.199,158.452z M75.044,317.068
			c10.991-0.002,21.982-0.01,32.974,0.014c0.542,0.001,1.183,0.146,1.609,0.456c12.484,9.08,26.082,16.083,40.416,21.72
			c8.19,3.221,16.545,5.942,25.044,8.226c0.353,0.095,0.681,0.281,1.018,0.438c-3.654-0.552-7.317-1.038-10.953-1.679
			c-13.46-2.374-26.791-5.33-39.935-9.09c-17.018-4.868-33.6-10.886-49.417-18.897c-0.555-0.281-1.103-0.576-1.649-0.874
			c-0.05-0.027-0.064-0.122-0.157-0.314C74.385,317.068,74.715,317.068,75.044,317.068z M147.329,334.116
			c-10.626-4.432-20.818-9.693-30.403-16.093c-0.354-0.236-0.698-0.487-1.252-0.875c0.539-0.042,0.857-0.088,1.175-0.088
			c21.248-0.006,42.496-0.004,63.743-0.029c0.756-0.001,1.175,0.236,1.596,0.856c7.878,11.608,17.626,21.289,29.804,28.36
			c3.522,2.045,7.307,3.639,10.973,5.436c0.34,0.167,0.691,0.311,1.037,0.466c-9.249-0.656-18.388-1.917-27.463-3.617
			C179.655,345.37,163.198,340.734,147.329,334.116z M176.844,347.968c-0.006,0.043-0.013,0.086-0.019,0.128
			c-0.163-0.043-0.327-0.086-0.49-0.128C176.505,347.968,176.675,347.968,176.844,347.968z M201.234,333.886
			c-5.263-4.566-9.877-9.73-13.982-15.353c-0.275-0.377-0.533-0.767-0.79-1.157c-0.034-0.052-0.018-0.138-0.032-0.291
			c43.452,0,86.896,0,130.45,0c-0.173,0.302-0.295,0.57-0.465,0.805c-9.715,13.466-21.876,23.941-37.369,30.254
			c-10.177,4.147-20.779,5.904-31.776,5.216C229.636,352.256,214.464,345.364,201.234,333.886z M281.57,351.154
			c16.057-6.899,28.732-17.878,38.635-32.144c1.048-1.51,2.076-2.069,3.929-2.063c20.581,0.072,41.162,0.037,61.744,0.031
			c0.491,0,0.982,0,1.556,0.238c-0.554,0.385-1.099,0.783-1.662,1.154c-14.602,9.615-30.407,16.673-46.997,22.05
			c-13.469,4.366-27.215,7.572-41.223,9.617c-6.072,0.886-12.17,1.602-18.256,2.396c-0.023-0.101-0.045-0.202-0.068-0.302
			C280.008,351.806,280.792,351.488,281.57,351.154z M326.916,347.959c-0.166,0.058-0.333,0.116-0.499,0.174
			c-0.007-0.058-0.014-0.116-0.021-0.174C326.57,347.959,326.743,347.959,326.916,347.959z M328.244,347.46
			c18.218-4.957,35.728-11.669,52.03-21.278c4.522-2.665,8.806-5.733,13.22-8.585c0.493-0.318,1.118-0.61,1.682-0.612
			c11.109-0.04,22.218-0.036,33.327-0.037c0.263,0,0.526,0.04,1.173,0.092c-0.916,0.497-1.526,0.847-2.152,1.165
			c-13.154,6.667-26.859,11.962-40.918,16.369c-15.171,4.755-30.606,8.435-46.251,11.239c-3.947,0.707-7.905,1.352-11.86,2.011
			c-0.468,0.078-0.948,0.078-1.424,0.107C327.462,347.768,327.841,347.57,328.244,347.46z"/>
	</g>
</g>
</svg>
